<svg width="1200" height="760" viewBox="0 0 1200 760" fill="none" xmlns="http://www.w3.org/2000/svg">
  <rect width="1200" height="760" rx="42" fill="#020617"/>
  <rect x="92" y="88" width="1016" height="584" rx="36" fill="#07111F" stroke="#1E293B" stroke-width="4"/>
  <text x="142" y="154" fill="#67E8F9" font-family="Inter, Arial" font-size="24" font-weight="700" letter-spacing="5">BUDGET BOX</text>
  <text x="142" y="214" fill="#F8FAFC" font-family="Inter, Arial" font-size="56" font-weight="800">Offline-first finance dashboard</text>
  <rect x="142" y="286" width="284" height="236" rx="24" fill="#0F172A" stroke="#22D3EE" stroke-opacity=".45" stroke-width="3"/>
  <circle cx="284" cy="404" r="72" fill="#22D3EE" fill-opacity=".15" stroke="#67E8F9" stroke-width="26" stroke-dasharray="250 452"/>
  <circle cx="284" cy="404" r="72" stroke="#34D399" stroke-width="26" stroke-dasharray="132 452" stroke-dashoffset="-252"/>
  <circle cx="284" cy="404" r="72" stroke="#F472B6" stroke-width="26" stroke-dasharray="70 452" stroke-dashoffset="-386"/>
  <rect x="482" y="286" width="576" height="236" rx="24" fill="#0F172A" stroke="#34D399" stroke-opacity=".35" stroke-width="3"/>
  <path d="M536 454l86-92 92 52 106-118 86 86 92-132" stroke="#A7F3D0" stroke-width="10" stroke-linecap="round" stroke-linejoin="round"/>
  <circle cx="622" cy="362" r="12" fill="#A7F3D0"/>
  <circle cx="820" cy="296" r="12" fill="#A7F3D0"/>
  <circle cx="998" cy="250" r="12" fill="#A7F3D0"/>
  <rect x="142" y="560" width="202" height="48" rx="24" fill="#22D3EE" fill-opacity=".16" stroke="#22D3EE" stroke-opacity=".55"/>
  <text x="174" y="592" fill="#CFFAFE" font-family="Inter, Arial" font-size="22" font-weight="700">IndexedDB</text>
  <rect x="376" y="560" width="166" height="48" rx="24" fill="#34D399" fill-opacity=".14" stroke="#34D399" stroke-opacity=".55"/>
  <text x="416" y="592" fill="#DCFCE7" font-family="Inter, Arial" font-size="22" font-weight="700">Charts</text>
  <rect x="574" y="560" width="180" height="48" rx="24" fill="#F472B6" fill-opacity=".14" stroke="#F472B6" stroke-opacity=".55"/>
  <text x="612" y="592" fill="#FCE7F3" font-family="Inter, Arial" font-size="22" font-weight="700">Next.js</text>
</svg>
