<svg width="1200" height="760" viewBox="0 0 1200 760" fill="none" xmlns="http://www.w3.org/2000/svg">
  <rect width="1200" height="760" rx="42" fill="#020617"/>
  <path d="M0 0h1200v760H0z" fill="url(#bg)"/>
  <text x="96" y="116" fill="#67E8F9" font-family="Inter, Arial" font-size="24" font-weight="700" letter-spacing="5">TRELLO CLONE</text>
  <text x="96" y="176" fill="#F8FAFC" font-family="Inter, Arial" font-size="56" font-weight="800">Type-safe Kanban workflow</text>
  <g transform="translate(92 244)">
    <rect width="286" height="394" rx="28" fill="#0F172A" stroke="#22D3EE" stroke-opacity=".42" stroke-width="3"/>
    <text x="34" y="58" fill="#CFFAFE" font-family="Inter, Arial" font-size="26" font-weight="800">Backlog</text>
    <rect x="30" y="92" width="226" height="74" rx="16" fill="#1E293B"/>
    <rect x="30" y="190" width="226" height="74" rx="16" fill="#1E293B"/>
    <rect x="30" y="288" width="166" height="74" rx="16" fill="#1E293B"/>
  </g>
  <g transform="translate(456 244)">
    <rect width="286" height="394" rx="28" fill="#0F172A" stroke="#34D399" stroke-opacity=".42" stroke-width="3"/>
    <text x="34" y="58" fill="#D1FAE5" font-family="Inter, Arial" font-size="26" font-weight="800">In Progress</text>
    <rect x="30" y="92" width="226" height="74" rx="16" fill="#064E3B" fill-opacity=".55"/>
    <rect x="30" y="190" width="190" height="74" rx="16" fill="#1E293B"/>
  </g>
  <g transform="translate(820 244)">
    <rect width="286" height="394" rx="28" fill="#0F172A" stroke="#F472B6" stroke-opacity=".42" stroke-width="3"/>
    <text x="34" y="58" fill="#FCE7F3" font-family="Inter, Arial" font-size="26" font-weight="800">Done</text>
    <rect x="30" y="92" width="226" height="74" rx="16" fill="#831843" fill-opacity=".45"/>
    <rect x="30" y="190" width="206" height="74" rx="16" fill="#1E293B"/>
  </g>
  <path d="M380 424h70M744 424h70" stroke="#E0F2FE" stroke-width="10" stroke-linecap="round" stroke-dasharray="18 18"/>
  <text x="142" y="372" fill="#94A3B8" font-family="Inter, Arial" font-size="20">Drag &amp; drop</text>
  <text x="500" y="372" fill="#94A3B8" font-family="Inter, Arial" font-size="20">Optimistic updates</text>
  <text x="864" y="372" fill="#94A3B8" font-family="Inter, Arial" font-size="20">CRUD tasks</text>
  <defs>
    <radialGradient id="bg" cx="0" cy="0" r="1" gradientUnits="userSpaceOnUse" gradientTransform="translate(600 260) rotate(90) scale(520 780)">
      <stop stop-color="#0E7490" stop-opacity=".3"/>
      <stop offset=".58" stop-color="#0F172A"/>
      <stop offset="1" stop-color="#020617"/>
    </radialGradient>
  </defs>
</svg>
